<svg width="152" height="76" viewBox="0 0 152 76" fill="none" xmlns="http://www.w3.org/2000/svg">
<rect width="37.9433" height="75.8867" transform="matrix(-1 -8.74228e-08 -8.74228e-08 1 113.561 -0.000732422)" fill="#FFD668"/>
<path d="M151.504 38.3649L113.561 75.8866L113.561 -3.31711e-06L151.504 38.3649Z" fill="#FFD668"/>
<path d="M113.561 38.3649L75.6172 75.8866L75.6172 -3.31711e-06L113.561 38.3649Z" fill="#C424A3"/>
<path d="M76.6504 38.7314C71.5673 38.7314 66.534 37.7303 61.8378 35.785C57.1417 33.8398 52.8747 30.9887 49.2804 27.3944C45.6861 23.8001 42.835 19.5331 40.8897 14.8369C38.9445 10.1408 37.9434 5.10746 37.9434 0.0243797L76.6504 0.0244174L76.6504 38.7314Z" fill="#C424A3"/>
<path d="M75.9843 37.9141C71.0015 37.9141 66.0675 38.8955 61.464 40.8023C56.8605 42.7092 52.6777 45.5041 49.1543 49.0274C45.631 52.5508 42.8361 56.7336 40.9293 61.3371C39.0224 65.9406 38.041 70.8746 38.041 75.8574L75.9843 75.8574L75.9843 37.9141Z" fill="#5038BC"/>
<path fill-rule="evenodd" clip-rule="evenodd" d="M41.3699 14.876C39.463 10.2725 38.4816 5.33851 38.4816 0.355717L76.4248 0.355717L76.4248 0.355503L38.4815 0.3555L38.4815 38.2988L76.2979 38.2988C71.3583 38.2823 66.469 37.3014 61.9047 35.4108C57.3012 33.504 53.1183 30.7091 49.595 27.1857C46.0716 23.6623 43.2767 19.4795 41.3699 14.876Z" fill="#64E6FB"/>
<path fill-rule="evenodd" clip-rule="evenodd" d="M0.538089 0.355503L0.538086 38.2988L0.538254 38.2988L0.538292 0.355709L38.4814 0.355716L38.4814 0.355506L0.538089 0.355503ZM38.4814 0.480751C38.4651 5.42103 37.4842 10.311 35.5934 14.876C33.6865 19.4795 30.8916 23.6623 27.3683 27.1857C23.8449 30.7091 19.662 33.504 15.0585 35.4108C10.4936 37.3017 5.60359 38.2826 0.663325 38.2988L38.4814 38.2988L38.4814 0.480751Z" fill="#64E6FB"/>
<path fill-rule="evenodd" clip-rule="evenodd" d="M76.4248 76.2422L76.4248 38.2988L76.4247 38.2988L76.4247 76.2421L38.4815 76.2421L38.4815 76.2421L76.4248 76.2422ZM38.4815 76.1504C38.4934 71.1988 39.4745 66.2971 41.3696 61.7218C43.2765 57.1183 46.0714 52.9354 49.5947 49.4121C53.1181 45.8887 57.3009 43.0938 61.9044 41.187C66.4856 39.2895 71.394 38.3083 76.352 38.2988L38.4815 38.2988L38.4815 76.1504Z" fill="#64E6FB"/>
<path fill-rule="evenodd" clip-rule="evenodd" d="M0.538083 76.2422L0.538086 38.2988L0.53825 38.2988L0.538282 76.2421L38.4814 76.2421L38.4814 76.2422L0.538083 76.2422ZM38.4814 76.1182C38.4653 71.1775 37.4844 66.2871 35.5933 61.7218C33.6865 57.1183 30.8916 52.9354 27.3683 49.4121C23.8449 45.8887 19.662 43.0938 15.0585 41.187C10.4785 39.2899 5.57125 38.3088 0.61432 38.2988L38.4814 38.2988L38.4814 76.1182Z" fill="#64E6FB"/>
<path d="M151.504 38.3649L113.561 75.8866L113.561 -3.31711e-06L151.504 38.3649Z" fill="#FFD668"/>
<path d="M113.561 38.3649L75.6172 75.8866L75.6172 -3.31711e-06L113.561 38.3649Z" fill="#C424A3"/>
</svg>
