<svg width="97" height="97" viewBox="0 0 97 97" fill="none" xmlns="http://www.w3.org/2000/svg">
<g clip-path="url(#clip0_3156_24010)">
<circle cx="48.5" cy="48.5" r="35.4701" transform="matrix(-1 0 0 1 97 0)" stroke="#FFD668" stroke-width="26.0597"/>
<path fill-rule="evenodd" clip-rule="evenodd" d="M71.8519 48.5H48.5V71.7575C48.5123 68.7231 49.1159 65.7198 50.2774 62.9158C51.4509 60.0827 53.171 57.5084 55.3394 55.3399C57.5078 53.1715 60.0821 51.4514 62.9153 50.2779C65.7485 49.1044 68.7851 48.5003 71.8517 48.5003V71.8519H71.8519V48.5Z" fill="#5038BC"/>
<path fill-rule="evenodd" clip-rule="evenodd" d="M71.8519 48.5H48.5V71.7575C48.5123 68.7231 49.1159 65.7198 50.2774 62.9158C51.4509 60.0827 53.171 57.5084 55.3394 55.3399C57.5078 53.1715 60.0821 51.4514 62.9153 50.2779C65.7485 49.1044 68.7851 48.5003 71.8517 48.5003V71.8519H71.8519V48.5Z" fill="#5038BC"/>
<path fill-rule="evenodd" clip-rule="evenodd" d="M25.3278 48.5H48.6797V71.8519H48.6796C48.6796 68.7854 48.0756 65.7489 46.9021 62.9158C45.7285 60.0827 44.0085 57.5084 41.84 55.3399C39.6716 53.1715 37.0973 51.4514 34.2642 50.2779C31.431 49.1044 28.3944 48.5003 25.3278 48.5003V48.5Z" fill="#5038BC"/>
<path fill-rule="evenodd" clip-rule="evenodd" d="M25.3278 48.5H48.6797V71.8519H48.6796C48.6796 68.7854 48.0756 65.7489 46.9021 62.9158C45.7285 60.0827 44.0085 57.5084 41.84 55.3399C39.6716 53.1715 37.0973 51.4514 34.2642 50.2779C31.431 49.1044 28.3944 48.5003 25.3278 48.5003V48.5Z" fill="#5038BC"/>
<path fill-rule="evenodd" clip-rule="evenodd" d="M25.5109 48.6802H48.6797V25.4237C48.6674 28.4581 48.0638 31.4614 46.9023 34.2654C45.7288 37.0986 44.0087 39.6729 41.8403 41.8413C39.6719 44.0097 37.0976 45.7298 34.2644 46.9033C31.4875 48.0535 28.5153 48.6566 25.5109 48.6802ZM48.6797 25.329L25.328 25.329V48.6802H25.3278V25.3283H48.6797V25.329Z" fill="#5038BC"/>
<path fill-rule="evenodd" clip-rule="evenodd" d="M25.5109 48.6802H48.6797V25.4237C48.6674 28.4581 48.0638 31.4614 46.9023 34.2654C45.7288 37.0986 44.0087 39.6729 41.8403 41.8413C39.6719 44.0097 37.0976 45.7298 34.2644 46.9033C31.4875 48.0535 28.5153 48.6566 25.5109 48.6802ZM48.6797 25.329L25.328 25.329V48.6802H25.3278V25.3283H48.6797V25.329Z" fill="#5038BC"/>
<path fill-rule="evenodd" clip-rule="evenodd" d="M71.8568 48.6802C68.8524 48.6566 65.8802 48.0535 63.1033 46.9033C60.2702 45.7298 57.6959 44.0097 55.5274 41.8413C53.359 39.6729 51.6389 37.0986 50.4654 34.2654C49.2918 31.4322 48.6878 28.3956 48.6878 25.329L72.0394 25.329V25.3283H48.6875V48.6802H71.8568Z" fill="#5038BC"/>
<path fill-rule="evenodd" clip-rule="evenodd" d="M71.8568 48.6802C68.8524 48.6566 65.8802 48.0535 63.1033 46.9033C60.2702 45.7298 57.6959 44.0097 55.5274 41.8413C53.359 39.6729 51.6389 37.0986 50.4654 34.2654C49.2918 31.4322 48.6878 28.3956 48.6878 25.329L72.0394 25.329V25.3283H48.6875V48.6802H71.8568Z" fill="#5038BC"/>
</g>
<defs>
<clipPath id="clip0_3156_24010">
<rect width="97" height="97" fill="white" transform="matrix(-1 0 0 1 97 0)"/>
</clipPath>
</defs>
</svg>
