<svg width="156" height="135" viewBox="0 0 156 135" fill="none" xmlns="http://www.w3.org/2000/svg">
<rect x="156" y="78.0331" width="78" height="78" transform="rotate(90 156 78.0331)" fill="#5038BC"/>
<rect x="78" y="78.0331" width="78" height="78" transform="rotate(90 78 78.0331)" fill="#FFD668"/>
<path d="M78 156.033C62.573 156.033 47.4925 151.458 34.6655 142.888C21.8385 134.317 11.841 122.135 5.93737 107.882C0.0337484 93.6298 -1.51091 77.9466 1.49873 62.816C4.50837 47.6855 11.9372 33.7872 22.8457 22.8787C33.7542 11.9703 47.6524 4.54147 62.7829 1.53183C77.9135 -1.47782 93.5967 0.0668395 107.849 5.97048C122.102 11.8741 134.284 21.8716 142.855 34.6986C151.425 47.5256 156 62.6061 156 78.0331L78 78.0331L78 156.033Z" fill="#FFD668"/>
<rect x="78" y="78.0331" width="78" height="78" transform="rotate(90 78 78.0331)" fill="#5038BC"/>
<path d="M78 156.033C78 145.79 80.0175 135.647 83.9374 126.184C87.8573 116.72 93.6027 108.122 100.846 100.879C108.089 93.6358 116.687 87.8903 126.151 83.9705C135.614 80.0506 145.757 78.0331 156 78.0331L156 156.033L78 156.033Z" fill="#64E6FB"/>
<path fill-rule="evenodd" clip-rule="evenodd" d="M83.937 30.8493C80.0172 21.3859 77.9996 11.2431 77.9996 1L77.9996 79L155.977 79C145.741 78.997 135.607 76.9795 126.15 73.0626C116.687 69.1428 108.088 63.3973 100.845 56.1544C93.6023 48.9114 87.8569 40.3127 83.937 30.8493Z" fill="#5038BC"/>
<path fill-rule="evenodd" clip-rule="evenodd" d="M77.9936 0.999996C77.8666 10.9028 75.8549 20.694 72.0626 29.8493C68.1427 39.3127 62.3973 47.9114 55.1543 55.1544C47.9113 62.3973 39.3127 68.1428 29.8493 72.0626C20.3859 75.9825 10.2431 78 4.37115e-08 78L0 79L78 79L78 0.999996L77.9936 0.999996Z" fill="#5038BC"/>
<path d="M78 156.033C78 145.79 75.9825 135.647 72.0626 126.184C68.1427 116.72 62.3973 108.122 55.1543 100.879C47.9113 93.6358 39.3127 87.8903 29.8493 83.9705C20.3858 80.0506 10.243 78.0331 -7.62939e-05 78.0331L-1.10389e-05 156.033L78 156.033Z" fill="#64E6FB"/>
</svg>
